<mxfile host="app.diagrams.net" agent="Mozilla/5.0 (Windows NT 10.0; Win64; x64) AppleWebKit/537.36 (KHTML, like Gecko) Chrome/134.0.0.0 Safari/537.36" version="26.1.3">
  <diagram name="Page-1" id="929967ad-93f9-6ef4-fab6-5d389245f69c">
    <mxGraphModel dx="2074" dy="1098" grid="1" gridSize="10" guides="1" tooltips="1" connect="1" arrows="1" fold="1" page="1" pageScale="1.5" pageWidth="1169" pageHeight="826" background="none" math="0" shadow="0">
      <root>
        <mxCell id="0" style=";html=1;" />
        <mxCell id="1" style=";html=1;" parent="0" />
        <mxCell id="WOfRERGr82b6D8CEGfpx-5" value="&lt;b&gt;&lt;font style=&quot;font-size: 15px;&quot;&gt;ObiRopeBase&lt;/font&gt;&lt;/b&gt;" style="swimlane;fontStyle=1;align=center;verticalAlign=middle;childLayout=stackLayout;horizontal=1;startSize=29;horizontalStack=0;resizeParent=1;resizeParentMax=0;resizeLast=0;collapsible=0;marginBottom=0;html=1;whiteSpace=wrap;" vertex="1" parent="1">
          <mxGeometry x="105" y="520" width="140" height="54" as="geometry" />
        </mxCell>
        <mxCell id="WOfRERGr82b6D8CEGfpx-6" value="&lt;b&gt;&lt;font style=&quot;font-size: 15px;&quot;&gt;ObiRope&lt;/font&gt;&lt;/b&gt;" style="swimlane;fontStyle=1;align=center;verticalAlign=middle;childLayout=stackLayout;horizontal=1;startSize=29;horizontalStack=0;resizeParent=1;resizeParentMax=0;resizeLast=0;collapsible=0;marginBottom=0;html=1;whiteSpace=wrap;" vertex="1" parent="1">
          <mxGeometry x="105" y="740" width="140" height="54" as="geometry" />
        </mxCell>
        <mxCell id="WOfRERGr82b6D8CEGfpx-8" value="" style="endArrow=block;endSize=16;endFill=0;html=1;rounded=0;entryX=0.5;entryY=1;entryDx=0;entryDy=0;exitX=0.5;exitY=0;exitDx=0;exitDy=0;" edge="1" parent="1" source="WOfRERGr82b6D8CEGfpx-5" target="WOfRERGr82b6D8CEGfpx-28">
          <mxGeometry width="160" relative="1" as="geometry">
            <mxPoint x="265" y="770" as="sourcePoint" />
            <mxPoint x="425" y="770" as="targetPoint" />
          </mxGeometry>
        </mxCell>
        <mxCell id="WOfRERGr82b6D8CEGfpx-9" value="" style="endArrow=block;endSize=16;endFill=0;html=1;rounded=0;entryX=0.5;entryY=1;entryDx=0;entryDy=0;exitX=0.5;exitY=0;exitDx=0;exitDy=0;" edge="1" parent="1" source="WOfRERGr82b6D8CEGfpx-6" target="WOfRERGr82b6D8CEGfpx-5">
          <mxGeometry width="160" relative="1" as="geometry">
            <mxPoint x="275" y="680" as="sourcePoint" />
            <mxPoint x="275" y="580" as="targetPoint" />
          </mxGeometry>
        </mxCell>
        <mxCell id="WOfRERGr82b6D8CEGfpx-10" value="&lt;b&gt;&lt;font style=&quot;font-size: 15px;&quot;&gt;ObiActorBlueprint&lt;/font&gt;&lt;/b&gt;" style="swimlane;fontStyle=1;align=center;verticalAlign=middle;childLayout=stackLayout;horizontal=1;startSize=29;horizontalStack=0;resizeParent=1;resizeParentMax=0;resizeLast=0;collapsible=0;marginBottom=0;html=1;whiteSpace=wrap;" vertex="1" parent="1">
          <mxGeometry x="1076.25" y="310" width="210" height="70" as="geometry" />
        </mxCell>
        <mxCell id="WOfRERGr82b6D8CEGfpx-11" value="&lt;b&gt;&lt;font style=&quot;font-size: 15px;&quot;&gt;ObiRopeBlueprintBase&lt;/font&gt;&lt;/b&gt;" style="swimlane;fontStyle=1;align=center;verticalAlign=middle;childLayout=stackLayout;horizontal=1;startSize=29;horizontalStack=0;resizeParent=1;resizeParentMax=0;resizeLast=0;collapsible=0;marginBottom=0;html=1;whiteSpace=wrap;" vertex="1" parent="1">
          <mxGeometry x="1070" y="464" width="222.5" height="60" as="geometry" />
        </mxCell>
        <mxCell id="WOfRERGr82b6D8CEGfpx-12" value="&lt;b&gt;&lt;font style=&quot;font-size: 15px;&quot;&gt;ObiRopeBlueprint&lt;/font&gt;&lt;/b&gt;" style="swimlane;fontStyle=1;align=center;verticalAlign=middle;childLayout=stackLayout;horizontal=1;startSize=29;horizontalStack=0;resizeParent=1;resizeParentMax=0;resizeLast=0;collapsible=0;marginBottom=0;html=1;whiteSpace=wrap;" vertex="1" parent="1">
          <mxGeometry x="1083.75" y="607" width="195" height="60" as="geometry" />
        </mxCell>
        <mxCell id="WOfRERGr82b6D8CEGfpx-13" value="" style="endArrow=block;endSize=16;endFill=0;html=1;rounded=0;entryX=0.5;entryY=1;entryDx=0;entryDy=0;exitX=0.5;exitY=0;exitDx=0;exitDy=0;" edge="1" parent="1" source="WOfRERGr82b6D8CEGfpx-11" target="WOfRERGr82b6D8CEGfpx-10">
          <mxGeometry width="160" relative="1" as="geometry">
            <mxPoint x="1271.25" y="780" as="sourcePoint" />
            <mxPoint x="1431.25" y="780" as="targetPoint" />
          </mxGeometry>
        </mxCell>
        <mxCell id="WOfRERGr82b6D8CEGfpx-14" value="" style="endArrow=block;endSize=16;endFill=0;html=1;rounded=0;entryX=0.5;entryY=1;entryDx=0;entryDy=0;exitX=0.5;exitY=0;exitDx=0;exitDy=0;" edge="1" parent="1" source="WOfRERGr82b6D8CEGfpx-12" target="WOfRERGr82b6D8CEGfpx-11">
          <mxGeometry width="160" relative="1" as="geometry">
            <mxPoint x="1281.25" y="690" as="sourcePoint" />
            <mxPoint x="1281.25" y="590" as="targetPoint" />
          </mxGeometry>
        </mxCell>
        <mxCell id="WOfRERGr82b6D8CEGfpx-15" value="&lt;font style=&quot;font-size: 15px;&quot;&gt;«interface»&lt;br&gt;IObiParticleCollection&lt;/font&gt;" style="html=1;whiteSpace=wrap;" vertex="1" parent="1">
          <mxGeometry x="340" y="160" width="230" height="60" as="geometry" />
        </mxCell>
        <mxCell id="WOfRERGr82b6D8CEGfpx-16" value="&lt;span style=&quot;color: rgb(51, 51, 51); font-family: Arial, sans-serif; text-align: start; background-color: rgb(255, 255, 255);&quot;&gt;&lt;font style=&quot;font-size: 15px;&quot;&gt;MonoBehaviour&lt;/font&gt;&lt;/span&gt;" style="swimlane;fontStyle=1;align=center;verticalAlign=middle;childLayout=stackLayout;horizontal=1;startSize=29;horizontalStack=0;resizeParent=1;resizeParentMax=0;resizeLast=0;collapsible=0;marginBottom=0;html=1;whiteSpace=wrap;" vertex="1" parent="1">
          <mxGeometry x="100" y="160" width="150" height="60" as="geometry" />
        </mxCell>
        <mxCell id="WOfRERGr82b6D8CEGfpx-17" value="" style="endArrow=block;endSize=16;endFill=0;html=1;rounded=0;entryX=0.5;entryY=1;entryDx=0;entryDy=0;exitX=0.5;exitY=0;exitDx=0;exitDy=0;" edge="1" parent="1" source="WOfRERGr82b6D8CEGfpx-28" target="WOfRERGr82b6D8CEGfpx-16">
          <mxGeometry width="160" relative="1" as="geometry">
            <mxPoint x="190" y="340" as="sourcePoint" />
            <mxPoint x="190" y="240" as="targetPoint" />
          </mxGeometry>
        </mxCell>
        <mxCell id="WOfRERGr82b6D8CEGfpx-18" value="&lt;span style=&quot;color: rgb(51, 51, 51); font-family: Arial, sans-serif; text-align: start; background-color: rgb(255, 255, 255);&quot;&gt;&lt;font style=&quot;font-size: 15px;&quot;&gt;MonoBehaviour&lt;/font&gt;&lt;/span&gt;" style="swimlane;fontStyle=1;align=center;verticalAlign=middle;childLayout=stackLayout;horizontal=1;startSize=29;horizontalStack=0;resizeParent=1;resizeParentMax=0;resizeLast=0;collapsible=0;marginBottom=0;html=1;whiteSpace=wrap;" vertex="1" parent="1">
          <mxGeometry x="1106.25" y="160" width="150" height="60" as="geometry" />
        </mxCell>
        <mxCell id="WOfRERGr82b6D8CEGfpx-19" value="" style="endArrow=block;endSize=16;endFill=0;html=1;rounded=0;entryX=0.5;entryY=1;entryDx=0;entryDy=0;exitX=0.5;exitY=0;exitDx=0;exitDy=0;" edge="1" parent="1" source="WOfRERGr82b6D8CEGfpx-10" target="WOfRERGr82b6D8CEGfpx-18">
          <mxGeometry width="160" relative="1" as="geometry">
            <mxPoint x="1180.75" y="334" as="sourcePoint" />
            <mxPoint x="1180.75" y="250" as="targetPoint" />
          </mxGeometry>
        </mxCell>
        <mxCell id="WOfRERGr82b6D8CEGfpx-20" value="" style="endArrow=block;dashed=1;endFill=0;endSize=12;html=1;rounded=0;entryX=0.5;entryY=1;entryDx=0;entryDy=0;exitX=1;exitY=0.25;exitDx=0;exitDy=0;edgeStyle=orthogonalEdgeStyle;" edge="1" parent="1" source="WOfRERGr82b6D8CEGfpx-28" target="WOfRERGr82b6D8CEGfpx-15">
          <mxGeometry width="160" relative="1" as="geometry">
            <mxPoint x="360" y="440" as="sourcePoint" />
            <mxPoint x="520" y="440" as="targetPoint" />
          </mxGeometry>
        </mxCell>
        <mxCell id="WOfRERGr82b6D8CEGfpx-21" value="&lt;font style=&quot;font-size: 15px;&quot;&gt;«interface»&lt;br&gt;IAerodynamicConstraintsUser&lt;/font&gt;" style="html=1;whiteSpace=wrap;" vertex="1" parent="1">
          <mxGeometry x="350" y="370" width="230" height="60" as="geometry" />
        </mxCell>
        <mxCell id="WOfRERGr82b6D8CEGfpx-22" value="" style="endArrow=block;dashed=1;endFill=0;endSize=12;html=1;rounded=0;entryX=0.5;entryY=1;entryDx=0;entryDy=0;exitX=1;exitY=0.5;exitDx=0;exitDy=0;edgeStyle=orthogonalEdgeStyle;" edge="1" parent="1" source="WOfRERGr82b6D8CEGfpx-5" target="WOfRERGr82b6D8CEGfpx-21">
          <mxGeometry width="160" relative="1" as="geometry">
            <mxPoint x="330" y="580" as="sourcePoint" />
            <mxPoint x="535" y="470" as="targetPoint" />
          </mxGeometry>
        </mxCell>
        <mxCell id="WOfRERGr82b6D8CEGfpx-23" value="&lt;font style=&quot;font-size: 15px;&quot;&gt;«interface»&lt;br&gt;IDistanceConstraintsUser&lt;/font&gt;" style="html=1;whiteSpace=wrap;" vertex="1" parent="1">
          <mxGeometry x="340" y="600" width="230" height="60" as="geometry" />
        </mxCell>
        <mxCell id="WOfRERGr82b6D8CEGfpx-24" value="&lt;font style=&quot;font-size: 15px;&quot;&gt;«interface»&lt;br&gt;IBendConstraintsUser&lt;/font&gt;" style="html=1;whiteSpace=wrap;" vertex="1" parent="1">
          <mxGeometry x="600" y="600" width="230" height="60" as="geometry" />
        </mxCell>
        <mxCell id="WOfRERGr82b6D8CEGfpx-25" value="" style="endArrow=block;dashed=1;endFill=0;endSize=12;html=1;rounded=0;entryX=0.5;entryY=1;entryDx=0;entryDy=0;exitX=1;exitY=0.5;exitDx=0;exitDy=0;edgeStyle=orthogonalEdgeStyle;" edge="1" parent="1" source="WOfRERGr82b6D8CEGfpx-6" target="WOfRERGr82b6D8CEGfpx-23">
          <mxGeometry width="160" relative="1" as="geometry">
            <mxPoint x="280" y="817" as="sourcePoint" />
            <mxPoint x="500" y="700" as="targetPoint" />
          </mxGeometry>
        </mxCell>
        <mxCell id="WOfRERGr82b6D8CEGfpx-26" value="" style="endArrow=block;dashed=1;endFill=0;endSize=12;html=1;rounded=0;entryX=0.5;entryY=1;entryDx=0;entryDy=0;exitX=1;exitY=0.5;exitDx=0;exitDy=0;edgeStyle=orthogonalEdgeStyle;" edge="1" parent="1" source="WOfRERGr82b6D8CEGfpx-6" target="WOfRERGr82b6D8CEGfpx-24">
          <mxGeometry width="160" relative="1" as="geometry">
            <mxPoint x="255" y="777" as="sourcePoint" />
            <mxPoint x="465" y="670" as="targetPoint" />
          </mxGeometry>
        </mxCell>
        <mxCell id="WOfRERGr82b6D8CEGfpx-28" value="&lt;b&gt;&lt;font style=&quot;font-size: 15px;&quot;&gt;ObiActor&lt;/font&gt;&lt;/b&gt;" style="swimlane;fontStyle=1;align=center;verticalAlign=top;childLayout=stackLayout;horizontal=1;startSize=26;horizontalStack=0;resizeParent=1;resizeParentMax=0;resizeLast=0;collapsible=1;marginBottom=0;whiteSpace=wrap;html=1;" vertex="1" parent="1">
          <mxGeometry x="95" y="315" width="160" height="60" as="geometry" />
        </mxCell>
        <mxCell id="WOfRERGr82b6D8CEGfpx-29" value="&lt;span style=&quot;text-align: center; text-wrap-mode: nowrap;&quot;&gt;&lt;b&gt;&lt;font style=&quot;font-size: 13px;&quot;&gt;ObiSolver m_Solver&lt;/font&gt;&lt;/b&gt;&lt;/span&gt;" style="text;strokeColor=none;fillColor=none;align=left;verticalAlign=top;spacingLeft=4;spacingRight=4;overflow=hidden;rotatable=0;points=[[0,0.5],[1,0.5]];portConstraint=eastwest;whiteSpace=wrap;html=1;" vertex="1" parent="WOfRERGr82b6D8CEGfpx-28">
          <mxGeometry y="26" width="160" height="26" as="geometry" />
        </mxCell>
        <mxCell id="WOfRERGr82b6D8CEGfpx-30" value="" style="line;strokeWidth=1;fillColor=none;align=left;verticalAlign=middle;spacingTop=-1;spacingLeft=3;spacingRight=3;rotatable=0;labelPosition=right;points=[];portConstraint=eastwest;strokeColor=inherit;" vertex="1" parent="WOfRERGr82b6D8CEGfpx-28">
          <mxGeometry y="52" width="160" height="8" as="geometry" />
        </mxCell>
      </root>
    </mxGraphModel>
  </diagram>
</mxfile>
